<?xml version="1.0" encoding="UTF-8"?>
<svg width="1180px" height="570px" viewBox="0 0 1180 570" version="1.1" xmlns="http://www.w3.org/2000/svg" xmlns:xlink="http://www.w3.org/1999/xlink">
    <!-- Generator: Sketch 58 (84663) - https://sketch.com -->
    <title>illustration-lp-3</title>
    <desc>Created with Sketch.</desc>
    <defs>
        <linearGradient x1="50.0112621%" y1="50%" x2="50.0112621%" y2="97.1133514%" id="linearGradient-1">
            <stop stop-color="#FFFFFF" stop-opacity="0" offset="0%"></stop>
            <stop stop-color="#F3F2F2" offset="100%"></stop>
        </linearGradient>
    </defs>
    <g id="Reviews" stroke="none" stroke-width="1" fill="none" fill-rule="evenodd">
        <g id="Landing-page" transform="translate(-370.000000, -1881.000000)">
            <g id="illustration-lp-3" transform="translate(370.000000, 1881.000000)">
                <g id="illustration-4">
                    <g id="Group-65" fill="url(#linearGradient-1)">
                        <rect id="Rectangle-Copy-76" opacity="0.845512" x="0" y="0" width="1180" height="570"></rect>
                        <rect id="Rectangle-Copy-82" opacity="0.1" transform="translate(590.000000, 285.000000) scale(1, -1) translate(-590.000000, -285.000000) " x="0" y="0" width="1180" height="570"></rect>
                    </g>
                    <g id="Group-2" transform="translate(287.000000, 8.000000)">
                        <g id="Group-3" transform="translate(710.100000, 98.100000)">
                            <g id="Group-55" transform="translate(0.000000, 86.400000)">
                                <path d="M75.1403936,0.789285432 C74.8331362,0.565846756 74.1041765,0.486618719 73.7650509,0.419684687 C72.3554349,0.141801128 70.9033279,0.0208125 69.4662532,0.0208125 C65.034972,0.0274473603 60.5317368,0.462420993 56.174013,1.21528249 C53.4072933,1.69318757 50.0625368,3.30155575 47.310248,2.42809592 C42.5153889,0.906176059 37.6694204,0.980915808 33.1202871,3.1536374 C28.9611882,5.14038776 25.8038327,8.91367182 23.9612904,12.9907934 C23.6832956,13.6062743 22.5554825,15.8714937 22.2361994,17.3984872 C22.0997073,17.7107159 21.9686269,18.0250912 21.8503739,18.34415 C21.514856,19.2500035 21.2140123,20.1718588 20.9344141,21.0954704 C20.8149585,21.489464 20.5145156,22.3594113 20.871279,22.5276245 C20.3012594,23.5796401 19.7959783,24.6638544 19.3750777,25.7831943 C18.1510588,29.038569 16.8127954,32.6094898 16.3826751,36.0598123 C16.2233342,37.3374132 16.2173213,38.6224295 16.3652378,39.9025672 C16.4383943,40.5352207 16.4081296,41.8075527 16.8370473,42.2885801 C17.7473951,43.3093728 18.2147951,41.880341 18.1121756,41.1996824 C17.3284988,36.0120023 18.8417366,31.1404537 20.6351738,26.2640265 C21.7948551,23.1107116 23.700332,20.2259134 25.8348992,17.6133396 C27.5623953,15.4985755 29.4155604,13.8332256 31.7836271,12.4311235 C34.679423,10.7165975 37.7754473,9.33049716 40.8430107,7.94010365 C42.8605274,7.0252735 44.8804492,6.13503137 46.9542864,5.346849 C47.4154732,5.17141549 48.1410255,4.72180614 48.6523195,4.72004985 C49.7336331,4.71614699 51.2659116,5.51408651 52.3103463,5.81089893 C55.7456966,6.78758939 59.2249408,8.03806541 62.7753372,8.53685078 C65.0526097,8.85708036 67.1861747,8.49665134 69.3159315,7.73793555 C69.5335973,7.66065894 69.8983777,7.46141799 70.3453341,7.17689957 C71.9265172,6.568639 73.4223176,5.80309322 74.7247042,4.69877927 C75.4751098,4.06241811 76.1559665,3.24008573 76.7768951,2.48741937 C76.9626926,2.26241955 77.0448684,2.00444057 77.0476744,1.75934103 C77.1883755,1.68577214 77.2817753,1.59990924 77.3028204,1.49960577 C77.4577518,0.758843132 76.044929,0.745183126 75.1403936,0.789285432" id="Twisted-Leaf" fill="#89C5CC"></path>
                                <path d="M69.8121003,21.7468744 C67.8473933,21.3176648 65.6780544,21.3505145 63.6767629,21.3859213 C52.9438421,21.5318762 42.4042965,26.6133477 35.544908,34.7327261 C29.7054626,41.644928 28.0997659,50.238758 26.9461487,58.9260227 C26.831772,59.7885727 26.7827247,60.6456149 26.7181993,61.5099352 C26.7043294,61.6954277 26.683625,61.8608563 26.6615135,62.0166464 C26.2078257,62.4222514 25.9698256,62.8951294 26.2383798,63.4146264 C25.2389401,65.6017856 24.3934769,67.8444154 23.6680188,70.1574656 C21.5328522,76.9658074 19.3609001,83.9035808 20.6988467,91.0628438 C21.0114229,87.1230461 21.6689384,83.0943379 22.4553037,79.219256 C22.5005317,78.996783 22.549378,78.7760804 22.6002345,78.5561646 C22.6054608,78.5329534 22.6102851,78.5097423 22.6155115,78.4867278 C22.8939154,77.3000086 23.2557399,76.1488929 23.6957586,75.015874 C23.700382,75.0034817 23.7048043,74.991286 23.7096286,74.9790903 C23.7677215,74.8299881 23.8294327,74.6816728 23.8903398,74.5333575 C24.0163754,74.2263015 24.1458281,73.9198357 24.2831204,73.6149434 C24.3295546,73.5110834 24.3741796,73.4062398 24.4169955,73.3006094 C25.0576259,71.7305128 25.3281902,69.961351 25.902084,68.3367672 C26.0393763,67.9673559 26.1829001,67.5993214 26.3332582,67.2332541 C26.3421028,67.2118132 26.3511485,67.1903724 26.3601941,67.1689316 C26.7666436,66.1838347 27.215708,65.2107367 27.6905021,64.2478674 C27.9486036,64.0539166 28.086499,63.572777 28.309021,63.1355025 C28.3550531,63.0493459 28.7148675,62.4747715 28.8220078,62.1437176 C29.1016177,61.6027798 29.3802226,61.0616452 29.6618426,60.5216909 C29.6534001,60.5248382 29.6449575,60.5279855 29.6365149,60.5311328 C29.918336,60.0126193 30.2009611,59.4962695 30.4813751,58.9820836 C30.5430863,58.8691751 30.6054005,58.7560699 30.6675137,58.642768 C30.7682215,58.4623898 30.8689294,58.2822084 30.9694362,58.1024203 C31.9095768,56.4200053 32.9064033,54.7712268 33.9416234,53.1429056 C34.3110864,52.5618401 35.1937372,51.7285991 35.3629907,51.0761297 C35.3692221,51.0517384 35.3706292,51.029314 35.3744485,51.0059062 C37.6207756,47.8509601 40.2068157,44.9409113 43.3080537,42.6351392 C42.9331633,43.0403508 42.1363453,44.4155131 41.9256831,44.6877524 C41.2810324,45.5213868 40.581103,46.2973867 39.8785604,47.0828284 C38.6204162,48.4898568 37.3920221,49.9415372 36.3005182,51.4766204 C34.304453,54.2839894 32.5823694,57.2384934 30.9545612,60.2524023 C30.9390831,60.2701057 30.922198,60.2868256 30.907524,60.3049224 C30.0893986,61.3134272 29.5744017,62.8376917 28.9854318,63.9913645 C31.3161847,62.9118493 33.8933802,62.2086301 36.2854421,61.2500883 C38.6708707,60.2944971 40.9913718,59.2303248 43.2316685,57.9806601 C46.2092831,56.3198826 49.2980583,54.4446971 52.1114448,52.3226472 C55.3355021,50.3227509 58.0447635,47.5700658 60.4362225,44.6814578 C63.2656901,41.2637143 65.8587656,37.8160717 67.4624522,33.6661934 C68.2502246,31.6269562 68.8699495,29.5005788 69.2374024,27.3494166 C69.2534835,27.2555885 69.2739869,27.1538921 69.2962994,27.0482617 C69.6721949,26.3053082 70.0082896,25.5456348 70.2903117,24.7684547 C70.7381701,23.5359033 71.7959037,22.180018 69.8121003,21.7468744" id="Fill-10" fill="#69A1AC"></path>
                                <path d="M73.8244538,59.6624377 C71.552527,58.1218417 68.5313024,57.718125 65.8125194,57.718125 C55.1934628,57.718125 45.2120431,61.657993 36.5892705,67.5284813 C31.8644199,70.7451446 27.6376832,74.8414373 23.9060827,79.1063947 C21.7521974,81.5683194 19.8316302,84.2316876 18.4719196,87.1937978 C17.5543862,89.1930874 16.9246188,91.2761906 16.4977552,93.4248512 C15.9775218,96.0434081 15.5642702,98.7150746 15.3773179,101.377198 C15.3037281,102.425492 14.6945914,107.98811 16.4375646,108.082297 C16.4275683,108.219428 16.4252288,108.350127 16.4358631,108.467342 C12.6513035,114.384924 10.3130182,121.320096 8.14467019,127.895325 C6.25813294,133.617064 4.57705173,139.387142 3.48575267,145.306384 C2.04904928,153.099401 1.10535528,161.009634 0.656584864,168.91468 C0.560237471,170.613568 0.494091689,172.313286 0.437091466,174.014455 C0.388811426,175.465429 0.339893324,176.916402 0.292251346,178.367376 C0.239079496,179.993445 -0.047197746,181.865562 0.211430134,183.482088 C0.436453404,184.88991 1.65493952,184.676849 1.70874944,183.275873 C1.77383178,181.584039 1.76319741,179.888886 1.83721263,178.195807 C1.93568689,175.94881 2.03713878,173.701814 2.14709817,171.45544 C2.91256013,155.850525 5.78426541,140.475061 11.0840101,125.734632 C13.2287498,119.769542 15.6863527,114.122695 18.8449733,108.604681 C21.6220327,103.753027 24.962501,99.0561384 28.3769846,94.6816423 C31.6957588,90.4305847 35.1461865,86.277863 39.2125569,82.6761544 C42.5124019,79.7534616 46.1421251,77.2073082 49.8733002,74.8381179 C54.6124009,71.8291218 59.342356,68.8931515 64.4757791,66.5832947 C67.1441552,65.3827252 69.8629383,64.3078763 72.5521578,63.1558523 C73.0360216,62.9486 73.5547662,62.7475715 74.0201262,62.5075406 C75.5725315,61.7069535 75.0614437,60.5011975 73.8244538,59.6624377" id="Fill-1" fill="#C1DEE2"></path>
                            </g>
                            <g id="Group-56" transform="translate(55.800000, 0.000000)">
                                <path d="M33.9898255,33.4611 C32.2604045,35.2971 29.8105044,36.45 27.0856845,36.45 C21.8500217,36.45 17.6056949,32.2191 17.6056949,27 C17.6056949,21.7809 21.8500217,17.55 27.0856845,17.55 L27.0856845,0 C12.1912666,0 0,12.1527 0,27 C0,41.8473 12.1912666,54 27.0856845,54 C34.9093845,54 41.9801024,50.7006 46.8,45.4518 L33.9898255,33.4611 Z" id="Value" fill="#F2F2F2"></path>
                                <path d="M27,0 L27,17.55 C32.2191,17.55 36.45,21.7809 36.45,27 L54,27 C54,12.1527 41.8473,0 27,0 Z" id="Value" fill="#AFB9C5"></path>
                                <path d="M36.0872672,27 C36.0872672,30.0662851 34.6432253,32.7918718 32.4,34.5516886 L43.4356213,48.6 C49.8594029,43.5705781 54,35.774356 54,27 L36.0872672,27 Z" id="Value" fill="#C5CFD6"></path>
                            </g>
                        </g>
                        <g id="Group-53" opacity="0.921549479">
                            <path d="M60.2089329,109.36714 C58.8560489,109.36714 57.5072896,109.394174 56.156104,109.464131 C55.1261556,109.517725 53.5522391,109.305245 52.6807256,109.944107 C51.7752444,110.607631 51.8375994,111.965981 51.9790505,112.925222 C52.7268246,117.997931 54.5518592,122.496045 58.3698259,126.089935 C64.2484173,131.623887 70.9876041,134.435682 78.9622437,135.687793 C84.5639986,136.567354 89.7353345,135.346071 93.8590102,131.381764 C96.871943,136.946781 99.1577249,143.105128 100.304619,149.320626 C100.870424,152.387586 101.043174,155.417552 100.943697,158.540478 C100.879643,160.540773 100.768763,162.536325 100.553311,164.527134 C100.4599,165.392229 100.016622,166.701728 100.357026,167.519158 C100.756389,168.479109 102.103208,168.572069 102.707832,167.753454 C103.211039,167.072144 103.118598,165.734188 103.221957,164.927904 C103.393251,163.588525 103.551929,162.248197 103.665478,160.902652 C103.849874,158.724738 103.98623,156.540658 103.976793,154.354444 C103.953233,149.442517 102.855834,144.511381 101.354706,139.848691 C98.4749747,130.903448 93.8024783,122.953492 86.5355795,116.71594 C82.0673745,112.880402 76.953541,111.32712 71.1516194,110.493328 C67.5393998,109.974224 63.868222,109.36714 60.2089329,109.36714" id="Fill-16" fill="#DDE3E9" transform="translate(77.936736, 138.838024) rotate(-39.000000) translate(-77.936736, -138.838024) "></path>
                            <path d="M90.8210021,130.393058 C89.7238462,121.656501 88.5623943,112.969982 86.4367457,104.403218 C85.1838238,99.3549346 83.5781233,94.4128905 82.1192116,89.4219951 C82.2499872,90.0480506 82.3657199,90.6781375 82.4661671,91.3098844 C81.958593,89.8213426 80.8985589,88.3975407 80.2888392,86.914216 C79.6087578,85.2599118 79.0618782,83.5415792 78.5424154,81.8334437 C77.5282377,78.4996982 76.5713198,75.1602613 75.4300059,71.8646957 C74.1581591,68.1930226 72.693667,64.5822949 71.3288944,60.9428731 C70.1705966,57.8540956 69.0858147,54.6111756 67.5778925,51.6634976 C66.7561174,50.056859 66.0192615,48.331175 65.2125292,46.6934707 C64.9424862,46.145435 62.6254055,40.0231341 62.6428746,40.0231341 C63.0259814,40.0231341 64.4628141,42.7445783 64.7008304,43.1444001 C65.3964399,44.3120884 65.9874775,45.5272052 66.5848233,46.7446935 C66.842735,45.2990744 67.251075,43.8838096 67.8942772,42.5548645 C68.0927454,42.1446085 69.4859054,39.1191479 69.9396165,39.1191479 C70.1662294,39.1191479 68.0721222,44.8323785 67.807417,45.3339343 C67.5924501,45.7413447 67.1896905,46.2578405 67.0494526,46.6913365 C66.8228396,47.3913803 66.9395429,47.2163694 67.1266077,47.8478791 C67.4694386,49.0053703 68.2281309,50.1389102 68.7056193,51.2503958 C68.9676557,51.8437257 69.6135268,53.9002231 70.2419288,54.8212836 C71.8600032,57.9840495 73.009809,61.8404565 74.2416225,65.251036 C74.5065704,63.575389 74.9646487,61.959739 75.5991164,60.3829803 C75.7495447,60.0085327 76.9466626,56.5341619 77.2914345,56.5341619 C77.6793938,56.5341619 76.1937933,62.0987044 75.9919283,62.5793917 C75.6170707,63.4722322 75.0277316,64.3363785 74.7159568,65.2451075 C74.3738538,66.2425277 74.974839,67.1403482 75.3577033,68.1605341 C76.7661486,71.9137842 78.0008736,75.7045027 79.1290857,79.5462069 C85.6812076,76.6765487 86.9841106,68.2307282 87.411618,62.0024246 C87.7195107,57.5135593 87.0246291,52.9424057 85.9352373,48.588 C84.4814208,42.7765925 82.0355056,37.1660445 79.4403752,31.7644187 C76.4165242,25.4704267 72.2581529,19.8489702 67.2442814,14.9213917 C64.6219769,12.34413 61.6354904,10.1104873 58.602177,8.01746996 C57.1204585,6.99491266 55.5982214,6.14618061 53.8685389,5.5772764 C53.0887381,5.32116279 52.2883141,5.13571756 51.4791555,4.99366937 C50.8643406,4.88576965 49.6099629,4.31567973 49.1002052,4.46104791 C44.9377092,5.61261059 41.8088011,7.52800839 39.3830238,11.088699 C37.0865663,14.4592015 35.6611371,18.4887223 34.8687198,22.4416462 C33.9865307,26.8434803 33.7737475,31.2815971 34.530984,35.7116511 C35.1086772,39.0916394 36.1051432,42.4052278 37.1030649,45.6863277 C40.6522017,57.356334 46.8731388,69.867721 58.0356447,76.2693755 C61.6488348,78.3417615 65.657991,79.553084 69.7736601,80.1952652 C70.7434372,80.3465619 71.7122438,80.4905072 72.693667,80.5457614 C73.3553088,80.5832299 75.5304531,80.1438053 76.0091547,80.4290874 C76.6654587,80.8201349 77.0424999,83.0386005 77.3285563,83.842987 C79.5020022,89.9567508 81.4456811,96.1397602 83.2093314,102.378024 C85.0855602,109.015161 86.5760132,115.7168 87.8175317,122.493139 C88.3454865,125.375366 88.8598541,128.25285 89.2977945,131.150728 C89.3999401,131.824923 89.2943977,133.945449 89.9524001,134.540913 C90.3685041,134.917495 90.9566302,134.763115 91.2041089,134.302111 C91.6345279,133.50057 90.933338,131.287559 90.8210021,130.393058" id="Leaf" fill="#C1DEE2" transform="translate(62.705178, 69.595019) rotate(-37.000000) translate(-62.705178, -69.595019) "></path>
                            <path d="M60.2610794,101.041196 C59.972004,99.9828267 59.7984283,98.8885379 59.8786908,97.7812685 C59.8990826,97.5013837 60.133834,95.4683964 60.3610812,95.4683964 C60.8902915,95.4683964 60.1614039,100.715257 60.2610794,101.041196 M51.0510382,105.620577 C51.0831079,105.633434 51.6657885,106.753376 51.8569307,107.078551 C52.2629882,107.770268 52.6960098,108.445215 53.1408382,109.103577 C52.3062265,108.018854 51.5574533,106.972333 51.0510382,105.620577 M82.3111251,72.300368 C82.8068503,71.8822195 82.5356431,70.8375716 81.9476554,71.4143344 C81.4729497,71.8816769 81.4588127,71.8353767 80.8620824,71.8055348 C80.3775181,71.7812995 79.8620755,71.6308239 79.375093,71.5709592 C78.3421617,71.4439955 77.3149969,71.39028 76.2757412,71.4628049 C74.0480473,71.6179829 71.8804356,72.1486264 69.8175494,72.973891 C66.2176361,74.4142607 62.5836825,76.2807368 59.7198234,78.8798771 C55.1662206,83.0125302 51.5093873,88.669472 49.3516343,94.3101364 C48.0151296,97.803449 47.2956306,101.309603 48.5104827,104.942901 C49.1174437,106.758736 50.0782019,108.486674 51.4725567,109.850901 C51.8371426,110.207376 52.3176146,110.48355 52.6587628,110.857749 C53.18332,111.433065 53.0631555,111.248769 52.7221933,112.069693 C52.3497949,112.966035 51.9807447,113.863463 51.6141128,114.762157 C50.6544707,117.115328 49.7097097,119.495085 49.0129043,121.936877 C48.7833641,122.740438 48.6068375,123.556298 48.4788605,124.38102 C48.3817616,125.004625 47.8181416,127.377148 48.3086584,128.01468 C49.1246983,129.075786 49.4723569,127.446418 49.4985848,126.889007 C49.5214644,126.400684 49.5640614,125.911277 49.6250737,125.425849 C49.7787206,124.203596 50.0566243,123.00377 50.4176759,121.824924 C50.8077456,120.550946 51.2857995,119.300841 51.7608772,118.054896 C52.2041466,116.893051 52.6680635,115.738801 53.141095,114.58835 C53.4037456,113.949191 53.6695585,113.311297 53.9353713,112.673404 C54.0261458,112.455467 54.0728351,112.000243 54.3131641,112.187071 C54.8384654,110.825014 55.693754,109.531502 56.4028363,108.252822 C57.2715179,106.686754 58.1578707,105.123942 59.1562035,103.631846 C59.8762605,102.555729 60.6346363,101.502219 61.4644411,100.502424 C61.9493775,99.9182461 62.4677963,99.3691548 63.0185813,98.842852 C63.3212248,98.5538376 64.354528,97.3140416 64.7713836,97.3140416 C64.5922529,97.3140416 63.7819794,98.8886096 63.6556765,99.0745337 C63.1510227,99.8185921 62.6032139,100.527383 62.0440582,101.233461 C61.0064767,102.543792 60.0436724,103.90169 59.1727587,105.322165 C59.4240625,105.471736 60.4690846,104.782659 60.7806567,104.649727 C61.4795082,104.35185 62.1978911,104.097199 62.9339453,103.900785 C64.2304572,103.554619 65.8151036,103.160344 67.0950603,103.160344 C66.7178256,103.160344 65.8422615,103.775992 65.4495877,103.943287 C64.8203051,104.211141 64.1750253,104.455483 63.5208169,104.659493 C62.9168321,104.847769 62.3018725,104.991372 61.6828206,105.12358 C61.0633967,105.255608 59.9441553,105.260672 59.3805354,105.590561 C59.346495,105.610456 59.3818375,105.929855 59.248466,106.015401 C59.1141645,106.101672 58.7294892,106.073457 58.698239,106.09715 C58.2367403,106.443678 57.9140074,107.447813 57.6362897,107.941742 C56.9156746,109.222412 56.2136609,110.51303 55.5047646,111.79985 C55.285083,112.198465 54.9928563,112.471202 55.186124,112.794399 C55.3924126,113.138938 56.3669357,113.352714 56.7477047,113.478231 C58.161591,113.944669 59.5942645,114.099124 61.0684191,113.854239 C63.8295988,113.39594 66.2261927,112.200816 68.3869219,110.509051 C76.6630207,104.029196 83.451014,95.8752996 85.5232009,85.5223256 C86.3809077,81.2361224 87.3050212,74.5513526 82.3111251,72.300368" id="Leave-the-Leaf!" fill="#89C5CC" transform="translate(67.045530, 99.805252) scale(-1, 1) rotate(-302.000000) translate(-67.045530, -99.805252) "></path>
                        </g>
                        <g id="Background-Shape-2" opacity="0.6" transform="translate(206.100000, 307.800000)" fill="#DDE3E9">
                            <path d="M595.540089,131.537141 C604.224893,190.32865 393.603613,228.67634 212.316995,201.914412 C31.0303767,175.152484 -52.1353282,70.6441369 34.3716237,14.9579813 C120.878575,-40.7281743 586.855285,72.7456321 595.540089,131.537141 Z" id="Background-Shape" opacity="0.318150112" transform="translate(297.900000, 105.300000) scale(-1, 1) translate(-297.900000, -105.300000) "></path>
                        </g>
                        <g id="Mobile3" transform="translate(97.200000, 40.500000)">
                            <rect id="Container" fill="#F2F2F2" x="0" y="0" width="324" height="271.8" rx="7.2"></rect>
                            <g id="Rows" transform="translate(12.600000, 25.200000)">
                                <rect id="Background" fill="#FFFFFF" x="0" y="0" width="299.7" height="233.1" rx="3.6"></rect>
                                <g id="Group-60" opacity="0.517531622" transform="translate(20.700000, 137.700000)">
                                    <path d="M163.930145,10.4448557 C163.930145,9.24923893 164.888627,8.28 166.094451,8.28 L201.190145,8.28 L201.190145,59.04 L166.094451,59.04 C164.899138,59.04 163.930145,58.0713276 163.930145,56.8751443 L163.930145,10.4448557 Z" id="Rectangle-471-Copy-13" fill="#DDE3E9" opacity="0.653390067"></path>
                                    <rect id="Rectangle-471-Copy-4" fill="#DDE3E9" opacity="0.653390067" x="0" y="0" width="137.7" height="69.12" rx="2.16"></rect>
                                    <path d="M85.9146049,31.766323 C87.7731115,29.3263459 90.6531218,29.4353952 92.3232706,32.025315 L92.3232706,32.025315 L100.236227,44.3069874 C101.90059,46.8865216 100.753086,49 97.6853611,49 L97.6853611,49 L59.1542952,49 C56.0852843,49 55.0798521,46.9949217 56.9229301,44.5348225 L56.9229301,44.5348225 L63.8034546,35.3668958 C65.644604,32.9061474 68.6641148,32.9061474 70.5097643,35.355861 L70.5097643,35.355861 L73.451489,39.2459336 C75.2997099,41.6911035 78.3346493,41.7021382 80.2008702,39.2569683 L80.2008702,39.2569683 Z M75.8274975,15 C79.3407243,15 82.1943773,17.8541046 82.1943773,21.3761359 C82.1943773,24.8884307 79.3407243,27.7477281 75.8274975,27.7477281 C72.3168421,27.7477281 69.4651177,24.8877816 69.4657604,21.3761359 C69.4657604,17.8541046 72.3168421,15 75.8274975,15 Z" id="Combined-Shape" fill="#FFFFFF" fill-rule="nonzero"></path>
                                </g>
                                <rect id="Rectangle-Copy-7" fill="#E2E7ED" opacity="0.552757626" x="20.7" y="39.6" width="167.4" height="7.57977778" rx="2.426112"></rect>
                                <rect id="Rectangle-Copy-9" fill="#E2E7ED" opacity="0.552757626" x="20.7" y="55.8" width="158.4" height="7.57977778" rx="2.426112"></rect>
                                <rect id="Container" fill="#E2E7ED" opacity="0.552757626" x="42.3" y="87.3" width="46.03392" height="18.6624" rx="2.31115162"></rect>
                                <rect id="Container-Copy" fill="#E2E7ED" opacity="0.552757626" x="116.1" y="87.3" width="46.03392" height="18.6624" rx="2.31115162"></rect>
                            </g>
                        </g>
                        <g id="Mobile3" transform="translate(110.700000, 50.400000)">
                            <g id="Group" transform="translate(107.100000, 37.800000)" fill="#89C5CC">
                                <g id="Group-54">
                                    <path d="M8.74070134,7.21200877e-13 C7.78682673,7.21200877e-13 6.83586029,0.0191536291 5.88318316,0.0687178447 C5.15699993,0.106689074 4.04728247,-0.0438517297 3.43280658,0.408778768 C2.79438118,0.878882752 2.83834563,1.84126861 2.93807822,2.52088641 C3.46530948,6.11488009 4.75208221,9.30177515 7.44400666,11.8480317 C11.5888108,15.7688132 16.3403927,17.7609586 21.9630524,18.6480741 C25.9126681,19.2712391 29.5588093,18.4059655 32.4662793,15.5972706 C34.5906004,19.5400619 36.2022311,23.903225 37.0108691,28.3068796 C37.4097994,30.4798084 37.5315997,32.626527 37.4614619,34.8391072 C37.4163,36.2563077 37.3381219,37.670148 37.1862136,39.0806279 C37.1203525,39.6935441 36.8078115,40.621319 37.0478197,41.2004642 C37.3293975,41.8805861 38.2789954,41.9464477 38.7052966,41.3664624 C39.0600914,40.8837573 38.9949145,39.9358207 39.0677895,39.3645721 C39.1885634,38.4156274 39.3004418,37.4660106 39.3805016,36.5126975 C39.5105132,34.9696543 39.6066533,33.4222427 39.6,31.8733189 C39.5833881,28.3932389 38.809648,24.8995498 37.7512509,21.5960528 C35.720846,15.2583858 32.4264204,9.62587471 27.3027658,5.20659484 C24.1523794,2.48913171 20.5467813,1.38863811 16.4560346,0.797899864 C13.9091758,0.430116583 11.3207474,7.21200877e-13 8.74070134,7.21200877e-13" id="Fill-16"></path>
                                    <path d="M23.4513126,25.2 C13.1561061,25.2 6.22227279,33.497397 2.94385067,42.1211486 C1.70801451,45.371758 1.41836014,48.9411894 0.942065847,52.354403 C0.789145874,53.4497295 0.84579539,55.1188374 0.401197851,56.0946261 C0.239847891,56.4484907 -0.130059959,56.5757248 0.0468011782,57.057806 C0.153862019,57.349773 0.363937307,57.5285884 0.679387437,57.5865561 C1.32697907,57.7057664 2.24264431,57.0004934 2.79784329,56.7221177 C7.40297684,54.4125819 10.4286679,50.841513 12.8969683,46.4723245 C14.427011,43.7642202 15.9794775,40.9529532 16.8883987,37.9799007 C17.4435977,36.163745 17.7668034,34.2509764 17.9566467,32.3668642 C18.0313364,31.6249111 18.1036657,30.8652729 18.0992821,30.1187348 C18.0948985,29.3780917 17.7502806,28.9865645 17.5026076,28.3418791 C20.9378275,27.0415371 24.8152845,26.6871812 28.2950148,28.0346833 C31.5134154,29.2809877 34.1869016,31.6894287 35.6838988,34.7152088 C36.0728584,35.501702 36.3727974,36.3314254 36.5913026,37.1776875 C36.7342752,37.7319826 36.7411878,38.4511744 37.0062266,38.9522507 C37.6489289,40.167115 39.0010988,39.3549129 38.871277,38.2240526 C38.5092934,35.069401 36.7046017,31.9023043 34.3979885,29.7090313 C31.4887998,26.9429594 27.5454203,25.2 23.4513126,25.2" id="Fill-18"></path>
                                </g>
                            </g>
                            <rect id="Container" fill="#DDE3E9" x="144.9" y="13.5" width="324" height="271.8" rx="7.2"></rect>
                            <g id="Group-46" transform="translate(157.500000, 22.500000)" fill="#FFFFFF" opacity="0.498116629">
                                <circle id="buttons" cx="3.6" cy="3.6" r="3.6"></circle>
                                <circle id="buttons" cx="14.4" cy="3.6" r="3.6"></circle>
                                <circle id="buttons" cx="25.2" cy="3.6" r="3.6"></circle>
                            </g>
                            <g id="Group-46-Copy" transform="translate(0.000000, 0.000000)" fill="#FFFFFF" opacity="0.709937686">
                                <circle id="buttons" cx="3.6" cy="3.6" r="3.6"></circle>
                                <circle id="buttons" cx="14.4" cy="3.6" r="3.6"></circle>
                                <circle id="buttons" cx="25.2" cy="3.6" r="3.6"></circle>
                            </g>
                            <g id="Rows" transform="translate(157.500000, 38.700000)">
                                <rect id="Container" fill="#FFFFFF" x="0" y="0" width="269.1" height="232.2" rx="3.6"></rect>
                                <g id="Group-40" transform="translate(27.900000, 18.000000)" opacity="0.71749442">
                                    <g id="Group-59" transform="translate(0.000000, 0.000000)">
                                        <path d="M47.8633678,49.128866 C50.8369784,45.2536082 55.4449948,45.4268041 58.1172329,49.5402062 L58.1172329,49.5402062 L70.7779638,69.0463918 C73.4409447,73.143299 71.6049382,76.5 66.6965778,76.5 L66.6965778,76.5 L5.04687232,76.5 C0.136454812,76.5 -1.47223664,73.3154639 1.47668816,69.4082474 L1.47668816,69.4082474 L12.4855274,54.8474227 C15.4313665,50.9391753 20.2625837,50.9391753 23.2156228,54.8298969 L23.2156228,54.8298969 L27.9223824,61.0082474 C30.8795358,64.8917526 35.7354389,64.9092784 38.7213924,61.0257732 L38.7213924,61.0257732 Z M31.723996,22.5 C37.3451589,22.5 41.9110037,27.0329897 41.9110037,32.6268041 C41.9110037,38.2051546 37.3451589,42.7463918 31.723996,42.7463918 C26.1069474,42.7463918 21.5441883,38.2041237 21.5452167,32.6268041 C21.5452167,27.0329897 26.1069474,22.5 31.723996,22.5 Z" id="Combined-Shape" fill="#DDE3E9" fill-rule="nonzero" opacity="0.856352307"></path>
                                        <rect id="Rectangle-Copy-7" fill="#E2E7ED" x="0" y="98.1" width="167.4" height="7.57977778" rx="2.426112"></rect>
                                        <rect id="Rectangle-Copy-14" fill="#E2E7ED" x="0" y="9.68114477e-14" width="27" height="7.57977778" rx="2.426112"></rect>
                                        <rect id="Rectangle-Copy-15" fill="#E2E7ED" x="36" y="9.68114477e-14" width="27" height="7.57977778" rx="2.426112"></rect>
                                        <rect id="Rectangle-Copy-9" fill="#E2E7ED" x="0" y="114.3" width="113.4" height="7.57977778" rx="2.426112"></rect>
                                        <rect id="Container" fill="#E2E7ED" x="1.33937306e-12" y="143.1" width="46.03392" height="18.6624" rx="2.31115162"></rect>
                                    </g>
                                </g>
                            </g>
                        </g>
                        <g id="Web" transform="translate(378.000000, 86.400000)">
                            <rect id="Container" fill="#F2F2F2" x="0" y="0" width="358.2" height="284.4" rx="7.2"></rect>
                            <path d="M7.2,0 L351,0 C354.97645,-1.61864047e-15 358.2,3.2235498 358.2,7.2 L358.2,24.3 L358.2,24.3 L0,24.3 L0,7.2 C-1.37515312e-15,3.2235498 3.2235498,-1.04589479e-15 7.2,0 Z" id="Header" fill="#C5CFD6"></path>
                            <rect id="Container" fill="#FFFFFF" x="14.4" y="39.6" width="329.4" height="228.6" rx="3.6"></rect>
                            <rect id="Rectangle-Copy-7" fill="#E2E7ED" x="29.7" y="50.4" width="45.9" height="7.57977778" rx="2.426112"></rect>
                            <rect id="Rectangle-Copy-10" fill="#E2E7ED" x="153.9" y="50.4" width="39.6" height="7.57977778" rx="2.426112"></rect>
                            <rect id="Rectangle-Copy-11" fill="#E2E7ED" x="203.4" y="50.4" width="39.6" height="7.57977778" rx="2.426112"></rect>
                            <rect id="Rectangle-Copy-12" fill="#E2E7ED" x="252.9" y="50.4" width="39.6" height="7.57977778" rx="2.426112"></rect>
                            <rect id="Rectangle-Copy-13" fill="#E2E7ED" x="300.6" y="50.4" width="28.8" height="7.57977778" rx="2.426112"></rect>
                            <rect id="Container" fill="#E2E6EC" opacity="0.821103051" x="78.3" y="76.5" width="199.8" height="123.3" rx="2.7"></rect>
                            <g id="Group-47" transform="translate(106.200000, 236.700000)" fill="#E2E6EC" opacity="0.483142671">
                                <rect id="Container-Copy-2" x="0" y="0" width="145.8" height="9" rx="3.6"></rect>
                                <rect id="Container-Copy-3" x="12.6" y="14.4" width="120.6" height="9" rx="3.6"></rect>
                            </g>
                            <path d="M191.249705,138.191753 C194.520676,133.928969 199.589494,134.119485 202.528956,138.644227 L202.528956,138.644227 L216.45576,160.101031 C219.385039,164.607629 217.365432,168.3 211.966236,168.3 L211.966236,168.3 L144.15156,168.3 C138.7501,168.3 136.98054,164.79701 140.224357,160.499072 L140.224357,160.499072 L152.33408,144.482165 C155.574503,140.183093 160.888842,140.183093 164.137185,144.462887 L164.137185,144.462887 L169.314621,151.259072 C172.567489,155.530928 177.908983,155.550206 181.193532,151.278351 L181.193532,151.278351 Z M173.496396,108.9 C179.679675,108.9 184.702104,113.886289 184.702104,120.039485 C184.702104,126.17567 179.679675,131.171031 173.496396,131.171031 C167.317642,131.171031 162.298607,126.174536 162.299738,120.039485 C162.299738,113.886289 167.317642,108.9 173.496396,108.9 Z" id="Combined-Shape" fill="#FFFFFF" fill-rule="nonzero"></path>
                            <g id="Group-44" transform="translate(46.800000, 122.400000)" fill="#BAC3CD">
                                <g id="Group-58" transform="translate(94.500000, 90.000000)">
                                    <path d="M4.09623679,0 C6.35899799,0 8.19247357,1.77326699 8.19247357,3.96172249 C8.19247357,6.15017799 6.35899799,7.92344498 4.09623679,7.92344498 C1.83347559,7.92344498 0,6.15017799 0,3.96172249 C0,1.77326699 1.83347559,0 4.09623679,0" id="Fill-2" opacity="0.404110863"></path>
                                    <path d="M20.4811839,0 C22.7439451,0 24.5774207,1.77326699 24.5774207,3.96172249 C24.5774207,6.15017799 22.7439451,7.92344498 20.4811839,7.92344498 C18.2184227,7.92344498 16.3849471,6.15017799 16.3849471,3.96172249 C16.3849471,1.77326699 18.2184227,0 20.4811839,0" id="Fill-3" opacity="0.404110863"></path>
                                    <path d="M36.8661311,0 C39.1288923,0 40.9623679,1.77326699 40.9623679,3.96172249 C40.9623679,6.15017799 39.1288923,7.92344498 36.8661311,7.92344498 C34.6033699,7.92344498 32.7698943,6.15017799 32.7698943,3.96172249 C32.7698943,1.77326699 34.6033699,0 36.8661311,0" id="Fill-4"></path>
                                    <path d="M53.2510782,0 C55.5138394,0 57.347315,1.77326699 57.347315,3.96172249 C57.347315,6.15017799 55.5138394,7.92344498 53.2510782,7.92344498 C50.988317,7.92344498 49.1548414,6.15017799 49.1548414,3.96172249 C49.1548414,1.77326699 50.988317,0 53.2510782,0" id="Fill-5" opacity="0.404110863"></path>
                                    <path d="M69.6360254,0 C71.8987866,0 73.7322622,1.77326699 73.7322622,3.96172249 C73.7322622,6.15017799 71.8987866,7.92344498 69.6360254,7.92344498 C67.3732642,7.92344498 65.5397886,6.15017799 65.5397886,3.96172249 C65.5397886,1.77326699 67.3732642,0 69.6360254,0" id="Fill-6" opacity="0.404110863"></path>
                                </g>
                                <path d="M247.747413,2.19796364 L256.549406,14.9673876 C256.916429,15.4998431 256.916429,16.1939368 256.549406,16.7263923 L247.747413,29.4958163 C247.298465,30.1455388 247.480338,31.0234565 248.152121,31.4576612 C248.391341,31.6113761 248.673162,31.6937799 248.963176,31.6937799 L250.816313,31.6937799 C251.365209,31.6937799 251.874781,31.4291368 252.179541,30.9885933 L262.010509,16.7263923 C262.377532,16.1939368 262.377532,15.4998431 262.010509,14.9673876 L252.179541,0.705186603 C251.874781,0.264643062 251.365209,0 250.816313,0 L248.963176,0 C248.155398,0 247.5,0.632290909 247.5,1.41354258 C247.5,1.69244785 247.58684,1.96501435 247.747413,2.19796364" id="Fill-9"></path>
                                <path d="M14.5383636,29.4958163 L5.73637,16.7263923 C5.37098567,16.1939368 5.37098567,15.4998431 5.73637,14.9673876 L14.5383636,2.19796364 C14.9873112,1.54824115 14.8054382,0.670323445 14.1336554,0.23611866 C13.8944352,0.0824038278 13.6126141,0 13.3226005,0 L11.469463,0 C10.9205673,0 10.4109954,0.264643062 10.1062354,0.705186603 L0.275267112,14.9673876 C-0.091755704,15.4998431 -0.091755704,16.1939368 0.275267112,16.7263923 L10.1062354,30.9885933 C10.4109954,31.4291368 10.9205673,31.6937799 11.469463,31.6937799 L13.3226005,31.6937799 C14.1303784,31.6937799 14.7857763,31.061489 14.7857763,30.2802373 C14.7857763,30.0013321 14.6989361,29.7287656 14.5383636,29.4958163" id="Fill-10-Copy"></path>
                            </g>
                            <g id="Buttons" transform="translate(8.100000, 9.000000)" fill="#F2F2F2">
                                <g id="Group-46">
                                    <circle id="buttons" cx="3.6" cy="3.6" r="3.6"></circle>
                                    <circle id="buttons" cx="14.4" cy="3.6" r="3.6"></circle>
                                    <circle id="buttons" cx="25.2" cy="3.6" r="3.6"></circle>
                                </g>
                            </g>
                        </g>
                        <g id="Graph" transform="translate(675.000000, 18.000000)">
                            <rect id="Value" fill="#DDE3E9" x="0" y="28.8" width="5.4" height="22.5" rx="2.7"></rect>
                            <rect id="Value" fill="#DDE3E9" x="12.6" y="14.4" width="5.4" height="36.9" rx="2.7"></rect>
                            <rect id="Value" fill="#DDE3E9" x="25.2" y="7.2" width="5.4" height="44.1" rx="2.7"></rect>
                            <rect id="Value" fill="#DDE3E9" x="37.8" y="14.4" width="5.4" height="36.9" rx="2.7"></rect>
                            <rect id="Value" fill="#C5CFD6" x="50.4" y="0" width="5.4" height="51.3" rx="2.7"></rect>
                        </g>
                        <g id="Chart" transform="translate(747.900000, 269.100000)"></g>
                        <g id="Chart" transform="translate(620.100000, 27.900000)">
                            <path d="M26.1460196,25.65351 C24.8156958,27.06111 22.9311572,27.945 20.8351419,27.945 C16.807709,27.945 13.5428423,24.70131 13.5428423,20.7 C13.5428423,16.69869 16.807709,13.455 20.8351419,13.455 L20.8351419,0 C9.37789739,0 0,9.31707 0,20.7 C0,32.08293 9.37789739,41.4 20.8351419,41.4 C26.8533727,41.4 32.2923865,38.87046 36,34.84638 L26.1460196,25.65351 Z" id="Value" fill="#F2F2F2"></path>
                            <path d="M20.7,0 L20.7,13.455 C24.70131,13.455 27.945,16.69869 27.945,20.7 L41.4,20.7 C41.4,9.31707 32.08293,0 20.7,0 Z" id="Value" fill="#AFB9C5"></path>
                            <path d="M27.9654504,20.7 C27.9654504,22.9997138 26.882419,25.0439038 25.2,26.3637665 L33.476716,36.9 C38.2945522,33.1279336 41.4,27.280767 41.4,20.7 L27.9654504,20.7 Z" id="Value" fill="#C5CFD6"></path>
                        </g>
                    </g>
                    <g id="Group-57" opacity="0.799479167" transform="translate(177.000000, 215.000000)" fill="#DDE3E9">
                        <path d="M18.0685204,12.8122718 C18.0659118,16.228112 17.6580982,21.2686491 18.8628438,24.4850946 C20.3910577,28.5650155 22.3027381,27.2896852 22.8092442,23.4557412 C23.0992353,21.2589918 23.092279,14.7579316 22.5522956,12.8122718 C21.788406,10.05824 18.0685204,8.18245354 18.0685204,12.8122718" id="Fill-69"></path>
                        <path d="M24.1675242,15.0212098 C21.0968019,15.1188688 12.1539967,14.4539044 10.0763752,16.6814123 C6.5126396,20.5018901 12.7166631,21.1786325 15.3803501,20.9646661 C18.463044,20.7173288 27.9886498,21.3209496 30.0532113,19.0909879 C33.5064815,15.3603171 26.5819837,14.9417085 24.1675242,15.0212098" id="Fill-71"></path>
                        <path d="M20.5519899,4.81265423 C28.1568497,5.9169533 36.067504,9.4934019 36.0009619,18.3453645 C35.945261,25.7879813 29.703018,33.7091028 21.6876909,33.264243 C14.4742329,32.8646168 7.68208339,24.9763925 6.77890582,18.2163925 C6.31086844,14.7139626 7.18638246,10.9431215 9.24656937,8.06200003 C11.9460086,4.28704676 16.2293731,4.29302806 20.5519899,4.81265423 M16.9598404,0.0014392785 C11.4596535,0.0313458206 7.43535442,2.02125236 4.03124227,6.22087853 C2.81030769,7.72667292 1.39049461,9.3476075 0.461148812,11.0537757 C-0.406888571,12.6470468 -0.254739038,16.6990094 2.72395255,14.7995701 C1.99049461,22.6440561 6.5751675,30.2578879 13.1658217,34.2773271 C20.3299339,38.6470468 28.427504,37.7950841 34.3897469,31.6705982 C39.8476909,26.064243 41.7684385,16.5947103 37.7755413,9.66125236 C33.7848871,2.7311589 24.538532,-0.0729532449 16.9598404,0.0014392785" id="Fill-292" opacity="0.733189174"></path>
                    </g>
                    <g id="Group-57-Copy-2" opacity="0.985909598" transform="translate(1085.000000, 482.000000)" fill="#BEDBDF">
                        <path d="M18.0685204,12.8122718 C18.0659118,16.228112 17.6580982,21.2686491 18.8628438,24.4850946 C20.3910577,28.5650155 22.3027381,27.2896852 22.8092442,23.4557412 C23.0992353,21.2589918 23.092279,14.7579316 22.5522956,12.8122718 C21.788406,10.05824 18.0685204,8.18245354 18.0685204,12.8122718" id="Fill-69"></path>
                        <path d="M24.1675242,15.0212098 C21.0968019,15.1188688 12.1539967,14.4539044 10.0763752,16.6814123 C6.5126396,20.5018901 12.7166631,21.1786325 15.3803501,20.9646661 C18.463044,20.7173288 27.9886498,21.3209496 30.0532113,19.0909879 C33.5064815,15.3603171 26.5819837,14.9417085 24.1675242,15.0212098" id="Fill-71"></path>
                        <path d="M20.5519899,4.81265423 C28.1568497,5.9169533 36.067504,9.4934019 36.0009619,18.3453645 C35.945261,25.7879813 29.703018,33.7091028 21.6876909,33.264243 C14.4742329,32.8646168 7.68208339,24.9763925 6.77890582,18.2163925 C6.31086844,14.7139626 7.18638246,10.9431215 9.24656937,8.06200003 C11.9460086,4.28704676 16.2293731,4.29302806 20.5519899,4.81265423 M16.9598404,0.0014392785 C11.4596535,0.0313458206 7.43535442,2.02125236 4.03124227,6.22087853 C2.81030769,7.72667292 1.39049461,9.3476075 0.461148812,11.0537757 C-0.406888571,12.6470468 -0.254739038,16.6990094 2.72395255,14.7995701 C1.99049461,22.6440561 6.5751675,30.2578879 13.1658217,34.2773271 C20.3299339,38.6470468 28.427504,37.7950841 34.3897469,31.6705982 C39.8476909,26.064243 41.7684385,16.5947103 37.7755413,9.66125236 C33.7848871,2.7311589 24.538532,-0.0729532449 16.9598404,0.0014392785" id="Fill-292"></path>
                    </g>
                    <path d="M109.287781,197.07574 C111.033639,195.354483 108.709242,189.414565 112.216317,189.504324 C114.469037,190.607829 112.016644,193.527629 112.943331,195.180246 C115.165332,194.805371 115.866747,192.872918 116.6296,191.014383 C114.812064,187.957305 111.648017,186.283569 108.166541,184.947747 C107.792794,189.250888 106.881467,193.950023 109.287781,197.07574 Z M98.9764683,176.985617 C100.671128,178.532635 103.144,179.271825 105.227766,180.39117 C106.118614,177.096495 105.637351,175.32772 105.9599,172.059445 C102.918728,172.957032 100.589211,174.59909 98.9764683,176.985617 Z M91.6244102,176.985617 C93.006761,177.582249 94.0204849,178.553755 96.037693,178.506236 C96.6879098,171.969686 103.799337,172.096404 106.338766,167.513427 C100.89128,167.476468 88.7982709,167.904142 91.6244102,176.985617 Z M109.646168,155 C110.357823,158.104597 109.08276,160.670534 110.009447,163.690652 C115.026868,168.152191 128.190148,162.898771 126.920433,172.819754 C126.096142,173.10487 125.476644,173.611743 124.360524,173.564224 C123.167607,173.653983 117.211292,167.591684 111.3747,170.659322 C110.565769,171.620269 107.944092,176.925811 108.898675,179.615742 C108.990616,179.874824 109.142497,180.537716 109.287781,180.776604 C110.987561,183.627765 118.636568,185.085025 119.926762,189.113609 C120.82785,191.875011 119.783407,196.653345 118.841361,198.210924 C117.274697,200.771689 113.905857,203.406063 109.646168,204.256131 C108.238218,207.608885 109.410657,208.343104 109.646168,211.864816 C108.688762,212.012654 108.540288,212.98416 107.439527,213 C104.874498,211.690578 103.605409,207.478989 104.236122,205.100662 C102.147236,202.091104 103.078245,203.315949 96.913978,202.401996 C94.3282096,202.018614 92.2643874,200.982886 89.7966353,201.246882 C89.4331283,200.544652 92.8122079,198.036686 92.7405304,195.56568 C97.302288,195.306964 101.643893,198.796996 105.601512,196.690305 C105.314803,192.086208 104.706158,189.353846 104.64472,184 C99.8423314,180.890123 94.1231132,182.697328 89.7966353,178.506236 C85.6803019,166.890396 98.4696064,165.992808 106.338766,164.482749 C105.918941,160.037051 106.159572,157.270369 107.08114,155 C107.439527,155 109.282661,155 109.646168,155 Z" id="Fill-521" fill="#DDE3E9" opacity="0.512741815"></path>
                    <path d="M970.287781,524.07574 C972.033639,522.354483 969.709242,516.414565 973.216317,516.504324 C975.469037,517.607829 973.016644,520.527629 973.943331,522.180246 C976.165332,521.805371 976.866747,519.872918 977.6296,518.014383 C975.812064,514.957305 972.648017,513.283569 969.166541,511.947747 C968.792794,516.250888 967.881467,520.950023 970.287781,524.07574 Z M959.976468,503.985617 C961.671128,505.532635 964.144,506.271825 966.227766,507.39117 C967.118614,504.096495 966.637351,502.32772 966.9599,499.059445 C963.918728,499.957032 961.589211,501.59909 959.976468,503.985617 Z M952.62441,503.985617 C954.006761,504.582249 955.020485,505.553755 957.037693,505.506236 C957.68791,498.969686 964.799337,499.096404 967.338766,494.513427 C961.89128,494.476468 949.798271,494.904142 952.62441,503.985617 Z M970.646168,482 C971.357823,485.104597 970.08276,487.670534 971.009447,490.690652 C976.026868,495.152191 989.190148,489.898771 987.920433,499.819754 C987.096142,500.10487 986.476644,500.611743 985.360524,500.564224 C984.167607,500.653983 978.211292,494.591684 972.3747,497.659322 C971.565769,498.620269 968.944092,503.925811 969.898675,506.615742 C969.990616,506.874824 970.142497,507.537716 970.287781,507.776604 C971.987561,510.627765 979.636568,512.085025 980.926762,516.113609 C981.82785,518.875011 980.783407,523.653345 979.841361,525.210924 C978.274697,527.771689 974.905857,530.406063 970.646168,531.256131 C969.238218,534.608885 970.410657,535.343104 970.646168,538.864816 C969.688762,539.012654 969.540288,539.98416 968.439527,540 C965.874498,538.690578 964.605409,534.478989 965.236122,532.100662 C963.147236,529.091104 964.078245,530.315949 957.913978,529.401996 C955.32821,529.018614 953.264387,527.982886 950.796635,528.246882 C950.433128,527.544652 953.812208,525.036686 953.74053,522.56568 C958.302288,522.306964 962.643893,525.796996 966.601512,523.690305 C966.314803,519.086208 965.706158,516.353846 965.64472,511 C960.842331,507.890123 955.123113,509.697328 950.796635,505.506236 C946.680302,493.890396 959.469606,492.992808 967.338766,491.482749 C966.918941,487.037051 967.159572,484.270369 968.08114,482 C968.439527,482 970.282661,482 970.646168,482 Z" id="Fill-521-Copy-3" fill="#89C5CC"></path>
                    <path d="M187.896809,136 C188.872533,135.00653 187.573475,131.578145 189.533507,131.629952 C190.792506,132.26687 189.421914,133.952111 189.93982,134.905964 C191.181651,134.689595 191.573657,133.574227 192,132.501524 C190.984217,130.737048 189.215896,129.771006 187.270171,129 C187.061292,131.483674 186.55197,134.195908 187.896809,136 Z M182,123.956274 C182.970674,124.884664 184.387097,125.328264 185.580645,126 C186.090909,124.022814 185.815249,122.961343 186,121 C184.258065,121.538657 182.923754,122.524081 182,123.956274 Z M177.250936,124.169379 C178.072873,124.494923 178.675627,125.025012 179.875046,124.999083 C180.261661,121.432507 184.490071,121.501649 186,119.001012 C182.760959,118.980845 175.570531,119.214199 177.250936,124.169379 Z M187.951083,111 C188.363026,112.819936 187.624953,114.324106 188.161368,116.09452 C191.065714,118.709905 198.68531,115.630314 197.950332,121.446063 C197.47319,121.6132 197.114592,121.910332 196.468523,121.882476 C195.778,121.935093 192.330173,118.381332 188.951648,120.179602 C188.483396,120.742916 186.965832,123.853062 187.518395,125.429918 C187.571615,125.581793 187.659532,125.970385 187.74363,126.110423 C188.727551,127.781793 193.155198,128.636049 193.902029,130.997633 C194.423626,132.616386 193.819048,135.417478 193.273742,136.330542 C192.366875,137.83168 190.416814,139.375968 187.951083,139.874284 C187.136088,141.839691 187.814757,142.270096 187.951083,144.334547 C187.396887,144.421211 187.310942,144.990715 186.673764,145 C185.188991,144.232408 184.454375,141.763545 184.819465,140.369354 C183.610309,138.60513 184.149226,139.323142 180.581025,138.787377 C179.084247,138.562636 177.889598,137.955485 176.461134,138.110241 C176.250717,137.698589 178.206706,136.228402 178.165215,134.779882 C180.805799,134.62822 183.318948,136.674101 185.609825,135.439144 C185.443862,132.740191 185.091547,131.138462 185.055983,128 C182.276109,126.176969 178.965526,127.236364 176.461134,124.779518 C174.078385,117.970232 181.481504,117.44406 186.036586,116.558853 C185.793569,113.952754 185.932859,112.330906 186.46631,111 C186.673764,111 187.740666,111 187.951083,111 Z" id="Fill-521-Copy" fill="#C5CFD6" opacity="0.608049665"></path>
                    <path d="M864.255533,455 C865.621546,453.580758 863.802865,448.683065 866.54691,448.757074 C868.309508,449.666957 866.39068,452.074445 867.115749,453.437092 C868.854311,453.127993 869.40312,451.53461 870,450.002177 C868.577904,447.481498 866.102255,446.101437 863.37824,445 C863.085808,448.548106 862.372757,452.422725 864.255533,455 Z M857,438.138783 C858.213343,439.43853 859.983871,440.059569 861.475806,441 C862.113636,438.231939 861.769062,436.745881 862,434 C859.822581,434.754119 858.154692,436.133714 857,438.138783 Z M850.334582,438.892505 C851.430498,439.326563 852.23417,440.033349 853.833395,439.998778 C854.348882,435.243342 859.986761,435.335531 862,432.001349 C857.681279,431.97446 848.094042,432.285599 850.334582,438.892505 Z M864.296932,421 C864.858672,423.462267 863.852208,425.49732 864.583683,427.892586 C868.544155,431.431048 878.934513,427.264543 877.932271,435.132909 C877.281622,435.359035 876.792625,435.761038 875.911622,435.72335 C874.97,435.794538 870.268418,430.986508 865.661338,433.419462 C865.022813,434.181592 862.953408,438.389436 863.706902,440.52283 C863.779475,440.728309 863.899362,441.254051 864.014041,441.443514 C865.355752,443.704779 871.393451,444.860537 872.411858,448.055621 C873.123127,450.245699 872.298702,454.035412 871.555103,455.270733 C870.318466,457.301684 867.659292,459.391015 864.296932,460.065207 C863.185575,462.724288 864.111032,463.3066 864.296932,466.099681 C863.541209,466.216932 863.424011,466.987437 862.555132,467 C860.530442,465.961493 859.528694,462.621267 860.026543,460.735008 C858.377694,458.348117 859.11258,459.319546 854.246852,458.594686 C852.205791,458.290625 850.576725,457.469185 848.628819,457.678562 C848.341887,457.12162 851.009144,455.132544 850.952566,453.172781 C854.553362,452.967592 857.980383,455.735548 861.104306,454.064725 C860.877994,450.4132 860.397564,448.246154 860.349068,444 C856.558331,441.533546 852.043899,442.966846 848.628819,439.642877 C845.379616,430.430314 855.474778,429.718434 861.686253,428.520801 C861.354867,424.994902 861.544808,422.800637 862.272242,421 C862.555132,421 864.01,421 864.296932,421 Z" id="Fill-521-Copy-4" fill="#C1DEE2"></path>
                    <path d="M100.896809,52 C101.872533,51.0065303 100.573475,47.5781454 102.533507,47.6299521 C103.792506,48.2668698 102.421914,49.9521114 102.93982,50.9059643 C104.181651,50.6895951 104.573657,49.5742273 105,48.5015237 C103.984217,46.7370483 102.215896,45.7710057 100.270171,45 C100.061292,47.4836744 99.5519696,50.1959077 100.896809,52 Z M95,39.9562738 C95.9706745,40.8846641 97.3870968,41.3282636 98.5806452,42 C99.0909091,40.0228137 98.8152493,38.9613435 99,37 C97.2580645,37.5386565 95.9237537,38.5240811 95,39.9562738 Z M90.2509362,40.1693788 C91.0728733,40.4949226 91.6756272,41.0250116 92.8750465,40.9990833 C93.2616613,37.4325065 97.4900711,37.5016485 99,35.0010115 C95.760959,34.9808451 88.5705314,35.2141995 90.2509362,40.1693788 Z M100.951083,27 C101.363026,28.8199363 100.624953,30.3241061 101.161368,32.0945203 C104.065714,34.7099049 111.68531,31.6303141 110.950332,37.4460628 C110.47319,37.6131998 110.114592,37.9103323 109.468523,37.8824761 C108.778,37.9350933 105.330173,34.381332 101.951648,36.1796024 C101.483396,36.742916 99.9658323,39.8530617 100.518395,41.4299179 C100.571615,41.5817933 100.659532,41.9703853 100.74363,42.1104233 C101.727551,43.7817934 106.155198,44.6360492 106.902029,46.9976331 C107.423626,48.616386 106.819048,51.4174784 106.273742,52.3305416 C105.366875,53.8316796 103.416814,55.3759678 100.951083,55.8742837 C100.136088,57.8396911 100.814757,58.2700956 100.951083,60.3345471 C100.396887,60.4212107 100.310942,60.9907146 99.6737637,61 C98.1889909,60.2324078 97.4543753,57.7635451 97.8194652,56.3693538 C96.6103088,54.6051299 97.1492255,55.3231423 93.5810249,54.7873769 C92.0842467,54.5626356 90.8895984,53.9554848 89.4611342,54.1102412 C89.2507173,53.698589 91.2067056,52.2284024 91.1652149,50.7798817 C93.805799,50.6282203 96.3189475,52.674101 98.6098247,51.4391443 C98.443862,48.7401912 98.0915468,47.1384615 98.0559834,44 C95.2761092,42.1769686 91.9655262,43.2363644 89.4611342,40.7795175 C87.0783849,33.9702321 94.481504,33.4440601 99.0365858,32.558853 C98.793569,29.9527538 98.9328591,28.3309058 99.4663104,27 C99.6737637,27 100.740666,27 100.951083,27 Z" id="Fill-521-Copy-2" fill="#C5CFD6" opacity="0.46702939"></path>
                    <path d="M624.755271,468.42157 C632.932805,520.904018 370.697873,558.89004 200,535 C29.3021268,511.10996 14.909837,414.063142 96.3640162,364.352804 C177.818195,314.642465 616.577736,415.939121 624.755271,468.42157 Z" id="Background-Shape" fill="#DDE3E9" opacity="0.356956845"></path>
                    <g id="Image" transform="translate(1014.000000, 444.000000) scale(-1, 1) translate(-1014.000000, -444.000000) translate(943.000000, 397.000000)">
                        <path d="M71.007,76.9862978 C71.003,76.9962978 70.999,77.0062978 70.993,77.0182978 C70.999,77.0082978 71.007,76.9682978 71.007,76.9862978" id="Fill-35" fill="#C5CFD6"></path>
                        <path d="M70.9976864,77.0014952 C70.9976864,77.0034952 70.9956864,77.0074952 70.9956864,77.0114952 C70.9956864,77.0014952 71.0136864,76.9714952 70.9976864,77.0014952" id="Fill-37" fill="#C5CFD6"></path>
                        <path d="M71.0671431,76.8323017 C71.0531431,76.8723017 71.0351431,76.9103017 71.0191431,76.9503017 C71.0271431,76.9303017 71.0351431,76.9143017 71.0431431,76.8943017 C70.8351431,77.4143017 70.9671431,77.0763017 71.0671431,76.8323017" id="Fill-39" fill="#C5CFD6"></path>
                        <path d="M71.0223751,76.95275 C71.0143751,76.97075 71.0063751,76.99075 70.9983751,77.00875 C70.9403751,77.12075 71.0223751,76.95275 71.0223751,76.95275" id="Fill-41" fill="#C5CFD6"></path>
                        <polygon id="Fill-43" fill="#C5CFD6" points="71 77.001 71 77.001 71 76.999"></polygon>
                        <path d="M70.999,77.002 C70.999,77 70.999,77 71.001,76.998 C70.999,77 70.999,77 70.999,77.002" id="Fill-45" fill="#C5CFD6"></path>
                        <path d="M70.9895117,77.0163509 C70.9775117,77.0403509 71.0455117,76.9243509 70.9895117,77.0163509" id="Fill-47" fill="#C5CFD6"></path>
                        <path d="M70.998,77.002 L71.002,76.998 C71,77 71,77.002 70.998,77.002" id="Fill-49" fill="#C5CFD6"></path>
                        <g id="icons8-night_landscape" transform="translate(11.000000, 27.000000)"></g>
                    </g>
                    <path d="M1046.82954,285.628744 C1042.85606,287.338482 1039.23491,289.60189 1035.71915,292.066097 C1030.77382,295.531806 1026.87855,299.565463 1024.15196,304.90998 C1022.52301,308.10282 1021.32811,312.620797 1022.42205,316.103277 C1023.71072,320.204925 1027.249,323.62576 1031.90907,322.90302 C1034.79071,322.456548 1037.43235,320.553264 1039.62254,318.761937 C1042.24259,316.618873 1044.33993,314.042028 1046.0717,311.180076 C1048.89671,306.511613 1050.55676,301.233953 1052.95654,296.355626 C1054.09527,294.040318 1055.19571,291.708466 1056.55958,289.508063 C1057.23479,288.4184 1057.95363,287.339162 1058.97793,286.529394 C1059.52594,286.096293 1061.8366,285.346583 1060.95296,284.373864 C1061.6438,284.382916 1062.65948,284.382916 1064,284.373864 L1064,283.706586 L1063.97436,283.18524 C1062.95012,283.063073 1061.91543,283 1060.87427,283 C1055.87834,283 1051.43274,283.647724 1046.82954,285.628744 Z" id="Fill-20" fill="#69A1AC" transform="translate(1043.000000, 303.000000) scale(-1, 1) translate(-1043.000000, -303.000000) "></path>
                </g>
                <g id="Big-Leaf-Plant" transform="translate(115.000000, 320.000000)">
                    <g id="Big-Ass-Leaf" transform="translate(13.486176, 0.000000)">
                        <path d="M15.4833278,0.719115439 C17.2393363,0.504580025 19.1135306,0.58031015 20.7465671,1.27344205 C24.2190521,2.74750697 25.2061115,6.84983942 25.158493,10.1842196 C25.1071565,13.773089 24.345031,17.6930416 27.0735695,20.5846805 C28.3278244,21.9140891 29.88802,22.9314739 31.1196142,24.2852929 C32.4355928,25.732031 33.4681705,27.3873871 34.2327172,29.1649767 C35.6365155,32.430072 36.3255243,36.2697815 35.0418275,39.6948879 C33.911555,42.710493 31.0679157,45.4323351 31.6823572,48.86137 C32.3232737,52.4384921 35.9297536,55.173232 38.1845405,57.8376263 C40.7363221,60.8528862 43.0858201,64.7066647 43.4717896,68.6608615 C43.8418958,72.4503879 42.1923644,76.282949 39.660863,79.1475211 C34.6029168,84.8714101 27.0000392,87.6774498 19.3340051,87.660144 C16.0792157,87.6525235 12.3941334,87.5055241 9.5853378,85.7564562 C8.71723884,85.2158324 8.25926086,84.6093012 7.74320035,83.7661368 C7.28049674,83.0100635 6.66926881,82.5182698 5.96178475,81.9832722 C4.40744467,80.8081822 3.28493539,79.224445 2.56857817,77.4516171 C-0.213191793,70.5658171 2.01015545,62.0472382 5.90400376,55.9325942 C6.82667389,54.4839101 7.58207854,53.0898416 7.13384164,51.3630954 C6.66609284,49.5605815 5.51646787,47.9348121 4.49963762,46.3853983 C3.49484772,44.8540942 2.34774625,43.3932509 1.56240878,41.7375754 C0.7398963,40.0031375 0.508283377,38.1868894 0.653612116,36.2886914 C0.926747522,32.7230504 2.46596715,29.4326477 4.64516714,26.5650849 C6.74413998,23.8029947 9.20868446,21.1601022 9.21420677,17.5409319 C9.22027101,13.7051044 6.65587624,10.2928992 7.7483463,6.39304764 C8.2007004,4.77818981 9.10927084,3.12133594 10.5734991,2.15320472 C11.9777213,1.22469568 13.8318228,0.920883443 15.4833278,0.719115439 Z" id="leaf" fill="#89C5CC"></path>
                        <path d="M14.335903,6.85124158 C14.3688326,6.33607536 14.9799226,6.02709781 15.460986,6.16152797 C16.0941979,6.33856231 16.0820201,6.93022192 16.0653025,7.4573443 C16.0140557,9.07759311 16.2485717,10.6522104 16.6380522,12.2243112 C17.4475455,15.4928838 18.943598,18.5043364 20.1288468,21.6440594 C21.3130627,24.7811541 21.8689585,28.0201094 21.1742479,31.3396034 C20.5193429,34.4694234 19.4904672,37.5181221 18.8202352,40.6518926 C18.2294801,43.4139088 17.6008884,46.3266098 18.5005329,49.0815928 C19.3662122,51.7334642 21.2801099,53.8931235 22.6582822,56.2896397 C25.511258,61.2505809 26.7769661,66.7541523 26.9462603,72.4178126 C27.0247171,75.047799 26.9540648,77.7019693 26.343938,80.2814135 C25.9927694,81.7666642 25.5208579,83.7739145 24.2480977,84.7993357 C23.6611953,85.2722112 22.657406,85.4357245 22.1634388,84.7354495 C21.6996756,84.0786472 22.1065221,83.0618513 22.2537509,82.3618031 C22.8913587,79.3314078 23.019631,76.234464 22.8669786,73.1574145 C22.7192357,70.1768877 22.3670858,67.2013386 21.429032,64.3548118 C20.5583923,61.7131939 19.2357294,59.3405076 17.679035,57.0296534 C16.0927744,54.6747314 14.4437172,52.3147851 13.7882799,49.524445 C13.1223364,46.6904497 13.6633487,43.8067684 14.3867564,41.0268963 C15.1517776,38.0865758 16.1538357,35.2306043 17.1897853,32.3699501 C18.1993536,29.582456 18.5571961,26.9449908 17.9998721,24.0275543 C16.8989053,18.2636721 13.9519408,12.8536232 14.335903,6.85124158 Z" id="middle-thing" fill="#FFFFFF"></path>
                    </g>
                    <g id="Big-Ass-Leaf" transform="translate(19.616256, 6.743088)">
                        <path d="M55.7177268,0.969946306 C57.8907478,1.62974603 60.0489659,2.69430434 61.5979945,4.36356238 C64.8917443,7.91329455 63.8811316,13.2783106 62.0628536,17.1968636 C60.1057015,21.414448 57.1398654,25.6538118 58.8117635,30.4929864 C59.5802067,32.7176712 60.8724123,34.7325058 61.6013745,36.9742705 C62.3801976,39.3698223 62.716352,41.8646598 62.6735241,44.3646181 C62.5942371,48.9562925 61.3728527,53.8556711 58.0568216,57.2384837 C55.1371888,60.2168242 50.3632169,61.956421 49.2714394,66.3313335 C48.1324412,70.8951508 50.9170093,76.0054973 52.1533559,80.3294704 C53.5525941,85.2228896 54.2713644,91.0027302 52.6340311,95.8798568 C51.0651303,100.553987 47.104646,104.228351 42.6213394,106.299125 C33.663435,110.437089 23.2628396,109.800398 14.2805229,105.791794 C10.4669596,104.089663 6.22241769,101.998755 3.85246653,98.4690632 C3.12002469,97.3781029 2.90345071,96.4225528 2.74382692,95.1569382 C2.60075246,94.0220774 2.14378546,93.1224948 1.59675535,92.1217437 C0.394774638,89.923449 -0.0847155713,87.4665255 0.0121168723,84.9972678 C0.388944872,75.4068016 7.49930924,66.4891423 15.2983791,61.2834716 C17.1462999,60.0502135 18.769167,58.7945301 19.1561213,56.5192519 C19.5602379,54.1442185 19.0711603,51.6234804 18.6974792,49.2621252 C18.3283481,46.9284508 17.7550567,44.6040714 17.7090597,42.2374761 C17.6610911,39.758395 18.3494313,37.4899623 19.5232028,35.3207069 C21.7282257,31.2459778 25.2727608,28.155398 29.3444331,25.8978119 C33.2662579,23.7232245 37.5538592,21.8797819 39.4732917,17.6025293 C41.5078767,13.0693341 40.3036547,7.69991543 43.6463278,3.65617635 C45.0304471,1.98172797 46.9718609,0.494947931 49.2009743,0.111734937 C51.3387638,-0.255836263 53.6740265,0.349412515 55.7177268,0.969946306 Z" id="leaf" fill="#C1DEE2"></path>
                        <path d="M51.278888,8.46618072 C51.5871987,7.87336209 52.4635711,7.82775046 52.9556782,8.23908705 C53.6033809,8.78062258 53.2792738,9.47490402 52.9836582,10.0903788 C52.0751686,11.9822746 51.5247223,13.9699088 51.1567954,16.0357844 C50.3915069,20.3308229 50.5636785,24.681217 50.305246,29.0206121 C50.0469823,33.3563531 49.0006714,37.4833999 46.4498353,41.0503433 C44.0448816,44.4135314 41.245126,47.4846436 38.8201812,50.8444767 C36.6828668,53.8057214 34.4223922,56.9255811 34.0314985,60.6596597 C33.6548911,64.2538277 34.7617589,67.8145032 35.1181502,71.3748835 C35.8559862,78.7451347 34.4536269,85.9260536 31.6853787,92.7218921 C30.3997271,95.8775363 28.927055,98.9836675 26.8627068,101.718551 C25.6742181,103.293379 24.071159,105.423093 22.0458699,105.970341 C21.1119427,106.222724 19.852567,105.890247 19.6417191,104.802053 C19.4434211,103.781173 20.4516725,102.790287 20.9904618,102.038433 C23.3231186,98.7839208 25.095058,95.1836421 26.5280906,91.4596817 C27.9163125,87.8526003 29.0629127,84.1442778 29.456838,80.2816583 C29.822275,76.6970329 29.5183111,73.1939671 28.908309,69.6414621 C28.2868142,66.0212739 27.5945223,62.3622222 28.2894871,58.7142688 C28.9950302,55.0091106 31.1378991,51.8777141 33.4396768,48.964851 C35.8741447,45.8837901 38.5416061,43.0268564 41.2511494,40.1821408 C43.8915293,37.4102366 45.6912663,34.4744132 46.5675195,30.7273718 C48.2988437,23.3245296 47.6863151,15.3731669 51.278888,8.46618072 Z" id="middle-thing" fill="#FFFFFF"></path>
                    </g>
                    <g id="Big-Ass-Leaf" transform="translate(0.000000, 34.941456)">
                        <path d="M8.15667005,-1.56319402e-13 C11.7699167,-1.56319402e-13 14.9465645,1.91525841 17.1354674,4.6330738 C19.6977861,7.81466279 20.2152954,11.7000155 21.2557686,15.491903 C21.7735051,17.3789664 22.6639756,19.2522654 24.2244582,20.5343585 C25.6438018,21.7003417 27.4456523,21.9336716 29.1445464,22.5033427 C32.5398345,23.641797 35.2814746,26.3842553 36.3642213,29.7305738 C37.6851541,33.8124031 36.2860381,37.9288655 36.5269515,42.0655306 C36.7480918,45.8645223 40.4938408,48.234674 43.5075312,50.0558013 C46.4791754,51.8516197 49.1562689,53.5326602 50.0512849,57.0310539 C51.0003928,60.7414646 51.3188076,64.8830139 50.0042386,68.5483572 C47.815563,74.6513424 41.4102209,77.3387428 35.221019,77.7554508 C29.6041001,78.1335295 22.5414734,77.5398815 18.323216,73.4627144 C15.7990798,71.0228524 14.8849725,67.6105976 14.9983836,64.2156595 C15.0688394,62.1045905 15.4870288,60.0130581 16.0277203,57.9730315 C16.410909,56.5270969 16.9286455,55.0873785 17.0761482,53.5932682 C17.4682007,49.6182246 13.7942711,48.8547409 10.6669423,47.7633522 C6.69300744,46.3762495 3.9109121,43.7563394 1.97633195,40.1063147 C0.17470874,36.7078244 -0.581213906,32.8928481 0.498805461,29.1511343 C1.05040626,27.2405381 2.05087875,25.5071038 3.40772126,24.0327522 C4.0050047,23.3838244 4.84683797,22.8425702 5.38593855,22.1607852 C5.88912939,21.5240678 5.77958197,20.6990881 5.60616977,19.953365 C4.80433721,16.5086972 2.3061106,13.6563452 1.41268548,10.2178936 C0.606080112,7.11422924 1.08290684,3.25152134 3.92045773,1.24923601 C5.1463888,0.384072916 6.65823409,0.00954632103 8.15667005,-1.56319402e-13 Z" id="leaf" fill="#C1DEE2"></path>
                        <path d="M13.0801755,8.97528106 C16.9098299,13.0546324 17.9507762,18.5894519 18.2562738,23.9539932 C18.4273975,26.962168 18.2492845,30.1350708 19.1330856,33.0528893 C19.8892767,35.5502294 21.6620644,37.4592548 23.4894134,39.2634936 C27.1677845,42.8955039 31.2700194,46.5878996 32.345912,51.8443242 C32.9771985,54.9290908 32.5510801,58.115314 33.4233827,61.1661138 C34.2165491,63.9391847 35.613045,66.6636364 37.3116566,69.0053506 C38.6792937,70.8910654 40.4610999,72.3347673 41.9561216,74.092607 C42.412226,74.6291943 43.0656076,75.4190899 42.8773489,76.1765728 C42.657075,77.0637068 41.5270722,77.3445438 40.7253384,77.2051243 C38.8560539,76.8803303 37.2825724,75.0954059 36.0603566,73.7977837 C34.2731395,71.9003025 32.7544445,69.8594058 31.520054,67.5700849 C30.1497114,65.0276778 29.0463127,62.3298667 28.574877,59.4775399 C28.08563,56.5184283 28.3291262,53.4345497 27.2119746,50.5946552 C25.3320936,45.8162084 20.7724014,42.9962944 17.4757331,39.2719298 C13.3683126,34.6311265 13.980886,28.855209 14.4015934,23.1465592 C14.6326893,20.0093992 14.8624325,16.4666352 13.277227,13.60232 C12.6720938,12.5089429 11.3229444,11.4894935 11.0627642,10.2467067 C10.8244535,9.10804036 12.1251292,7.95738577 13.0801755,8.97528106 Z" id="middle-thing" fill="#FFFFFF"></path>
                    </g>
                    <path d="M17.164224,110.954448 C17.164224,134.284607 20.971757,146.508912 41.071593,146.508912 C61.171429,146.508912 64.978848,134.284607 64.978848,110.954448 L17.164224,110.954448 Z" id="Base" fill="#89C5CC"></path>
                </g>
                <g id="Group-10" transform="translate(215.000000, 266.000000)">
                    <g id="A-Human/Standing">
                        <g id="Head/Front" transform="translate(229.343818, 27.942431) scale(-1, 1) rotate(-7.000000) translate(-229.343818, -27.942431) translate(211.343818, 2.942431)">
                            <g id="Head" transform="translate(9.695384, 9.091519)" fill="#F5CAA4">
                                <path d="M20.47415,4.90280887 C23.5846227,10.7005125 23.2150177,25.4068684 19.1950088,26.4430797 C17.59178,26.8563335 14.1763639,25.8439785 10.7003261,23.7487416 L12.8824477,39.1841116 L0,39.1841116 L4.43457977,18.5128082 C1.96139037,15.6096354 0.287525156,12.0518126 0.567244409,8.06519264 C1.37323147,-3.4219112 17.3636772,-0.894894717 20.47415,4.90280887 Z"></path>
                            </g>
                            <path d="M32.760554,11.7731812 C32.9644495,11.1926514 33.1625646,10.6061394 33.2979351,10.0018949 C33.5684289,8.79458081 33.570998,7.40614827 32.7097159,6.46866923 C32.0189809,5.71690204 30.9825571,5.3797151 30.0260217,5.30643449 C29.3887431,5.25756295 28.7342221,5.3468136 28.1233259,5.54764093 C27.517222,5.74686591 26.9947613,6.14392717 26.4071844,6.39036793 C26.3847544,5.08931665 26.1618872,3.72796376 25.5018328,2.6170575 C24.8666787,1.5481861 23.8540189,0.948374704 22.7007516,0.78968907 C21.5170508,0.626837337 20.3481715,0.903829494 19.2884778,1.47688172 C19.0231715,1.62039848 18.7603355,1.77075192 18.5088133,1.94092103 C18.2981986,2.08342297 18.0792344,2.2550342 17.8321093,2.3129857 C17.5566255,2.37766705 17.4200693,2.21855413 17.2410246,2.01756657 C17.0311016,1.78191493 16.7945986,1.57435775 16.5443115,1.39035505 C15.4376334,0.576897563 13.9856125,0.242434607 12.7034964,0.730028399 C12.1127576,0.954677263 11.5383225,1.33619577 11.1375469,1.86192539 C10.7802974,2.33055809 10.525465,3.07393966 10.0324004,3.4004443 C9.82316911,3.5390472 9.67539795,3.35541839 9.48489123,3.21969971 C9.1987359,3.01577452 8.92582119,2.79075177 8.63620749,2.59238137 C8.2294045,2.31368005 7.78895651,2.10521488 7.3172844,1.99609513 C6.62679634,1.83634127 5.67258295,1.87378275 5.47515949,2.77814665 C5.40105158,3.11784393 5.45786764,3.48114911 5.4818292,3.82341015 C5.5146837,4.29337814 5.54897096,4.76318589 5.58977971,5.23245953 C5.62075682,5.5887678 5.6599352,5.93289824 5.72717577,6.28279713 C5.763044,6.46931016 5.87529277,6.81701918 5.79530564,7.00379927 C5.69535878,7.23726104 5.23406177,7.10453341 5.03698415,7.11265196 C4.64772002,7.12872882 4.25682552,7.19698875 3.89690813,7.36331223 C3.61796597,7.49224765 3.32469629,7.68185855 3.20696353,8.00157993 C3.13458481,8.1979741 3.15365524,8.39970942 3.18784369,8.60176521 C3.22885006,8.84425352 3.18196446,8.97286847 3.15133319,9.21754666 C2.62852662,8.96010312 0.81683536,8.38811912 0.588879443,9.32506405 C0.512992948,9.63704076 0.685812583,9.98955681 0.81767525,10.252662 C1.04894132,10.7141375 1.35214146,11.1359283 1.66211013,11.5381705 C2.3086769,12.3773189 3.08058485,13.1010985 3.91108744,13.7200846 C2.93805064,14.1526645 2.68405815,15.4286124 3.52651682,16.1888186 C3.8984891,16.5244566 4.39861865,16.5991793 4.8678205,16.5777079 C5.03955322,16.5698564 5.28712303,16.5038398 5.42224644,16.5337502 C5.494971,16.5498271 5.57283371,16.611464 5.67357105,16.6183541 C6.33574989,16.6637005 7.08325163,16.5041602 7.73055948,16.3572251 C8.88397492,16.0954019 9.97593021,15.5489486 10.8676459,14.7166902 C11.0963923,14.5032044 11.2853675,14.3803044 11.5932611,14.3834557 C11.8630633,14.3861797 12.1277768,14.4601547 12.3973319,14.4669913 C13.1105464,14.4852047 13.7536054,14.1365343 14.415883,13.9044612 C14.4564448,14.7991576 14.7112277,15.7845468 15.077222,16.5894584 C15.3756792,17.2458326 16.5539455,19.2922951 16.9175683,19.6896235 C17.5163108,20.3439146 17.9615017,21.1545947 18.2702846,22.0086449 C19.1988567,20.798233 20.8401492,20.0006922 22.2942451,20.3725432 C23.9009045,20.7833312 25.0322357,22.9560585 24.0048531,24.5180785 C23.4083833,25.4248459 22.3312496,25.7749051 21.4349886,26.1644887 C22.134172,26.8914195 22.3032862,27.9650446 22.7241203,28.8694085 C22.9316719,29.3153947 23.2230147,29.8196529 23.6871773,29.9750804 C23.85891,30.0326046 24.0602859,30.0375185 24.1957551,30.1775101 C24.3635848,30.3508305 24.4035537,30.5446075 24.6178737,30.6935722 C25.473079,31.2881493 26.8089481,31.2423222 27.5669731,30.466413 C28.2524713,29.7646924 28.0741182,28.6542668 27.50161,27.9428254 C28.4129396,27.5629626 30.0732531,27.0744074 29.7110631,25.6546223 C31.6857917,25.523497 36.4803756,22.3208353 33.8299804,19.980556 C35.284521,19.1584993 36.6208348,17.1494783 35.6865317,15.3785124 C34.9670921,14.0148094 33.2939333,13.4052237 31.9211584,13.3329045 C32.3372496,12.9205675 32.5642174,12.332026 32.760554,11.7731812 Z" id="hair" fill="#191847" transform="translate(18.283682, 15.801127) scale(-1, 1) translate(-18.283682, -15.801127) "></path>
                        </g>
                        <path d="M54.2498832,52.4797562 L74.0426031,60.1928956 C78.8525245,60.2013595 83.0036083,60.7031134 86.4958543,61.6981574 C87.3803367,62.1554602 88.5910533,63.2371207 85.581996,63.8003909 C82.5729387,64.3636611 79.4331944,65.0914653 79.2958409,66.206091 C79.1584874,67.3207168 81.2648819,68.0452671 80.8061098,69.6224588 C80.5002618,70.67392 77.3024726,69.0997561 71.2127422,64.8999671 L53.0154793,62.4969654 L54.2498832,52.4797562 Z" id="Hand" fill="#F5CAA4" transform="translate(70.258287, 61.209009) rotate(-50.000000) translate(-70.258287, -61.209009) "></path>
                        <g id="Group-36" transform="translate(41.120888, 29.010529) rotate(-1.000000) translate(-41.120888, -29.010529) translate(26.620888, 4.510529)">
                            <path d="M24.9424689,10.0614163 C28.309772,16.4846504 27.9096488,32.7777163 23.5577096,33.9257274 C21.8221624,34.3835526 18.1249311,33.2620644 14.362012,30.9409283 L16.7239232,48.041425 L2.77777778,48.041425 L7.57873028,25.1400907 C4.90121469,21.92364 3.08903578,17.9818624 3.3918593,13.5649985 C4.26439634,0.838518827 21.5751658,3.63818221 24.9424689,10.0614163 Z" id="Head" fill="#F5CAA4"></path>
                            <path d="M6.5072899,28.0051093 C4.75691137,20.0357377 -0.229631372,14.603284 0.53193332,11.0413157 C1.03964311,8.66667017 2.39284192,7.18996147 4.59152973,6.61118963 C5.72867025,1.90330992 9.39618174,-0.0991348163 15.5940642,0.603855421 C24.8908879,1.65834078 30.5651516,5.60952229 28.1147175,14.3038459 C25.8621924,14.3038459 23.1429132,13.4701662 19.3827152,14.898528 C18.1896195,15.3517414 17.3362825,16.7571961 16.8227042,19.1148919 L15.1234856,19.1148919 C13.4743223,16.3169515 11.8482368,15.2887848 10.245229,16.0303917 C8.64222116,16.7719986 8.27783142,18.5733647 9.15205977,21.43449 L8.31502279,28.0051093 L6.5072899,28.0051093 Z" id="Hair" fill="#191847"></path>
                        </g>
                        <g id="Group-34" transform="translate(0.000000, 118.344069)">
                            <polygon id="Leg" fill="#F4CCA9" points="21.0102456 0 38.4372268 60.0519701 46.6340083 105.139906 54.8611074 105.139906 46.6486708 2.40190441e-29"></polygon>
                            <path d="M13.1783823,0 C14.3943789,31.1966869 13.9148075,48.2122077 13.6426529,51.0465623 C13.3704983,53.880917 11.8254567,72.863524 1.29707808,106.091399 L9.85398472,106.091399 C23.7970907,74.2149304 28.6644954,55.2323234 30.2636641,51.0465623 C31.8628328,46.8608012 36.5858917,29.8452805 43.4813483,0 L13.1783823,0 Z" id="Leg" fill="#F5CAA4"></path>
                            <path d="M20.6361372,0 C25.1691668,20.6640474 33.0093652,53.6491161 44.1567325,98.9552059 L56.189801,98.9552059 C57.0785803,52.4528378 53.2977546,21.8465 46.7503086,0 L20.6361372,0 Z" id="Pant" fill="#1F28CF"></path>
                            <path d="M13.1175778,0 C14.3084874,31.1966869 11.2221696,61.9313324 1.66188998,99.4409227 L14.5005123,99.4409227 C28.4692519,68.0402006 38.4810974,37.4572194 45.3235286,0 L13.1175778,0 Z" id="Pant" fill="#2B44FF"></path>
                            <path d="M0.0774136122,112.385217 L0.549554909,104.773279 C3.31387583,105.581774 6.77624534,105.264609 10.9366634,103.821786 C15.41012,106.990549 21.0416178,109.154269 27.8311568,110.312944 C28.3491544,110.401355 28.6974139,110.892939 28.6090142,111.410939 C28.6032895,111.444484 28.5957695,111.477697 28.5864863,111.510436 L27.9337501,113.812456 L27.9337501,113.812456 L10.9366634,113.812456 L1.02169621,113.812456 L0.0774136122,112.385217 Z" id="Shoe" fill="#191847"></path>
                            <path d="M44.4252397,112.385217 L44.897381,104.773279 C47.6617019,105.581774 51.1240714,105.264609 55.2844895,103.821786 C59.7579461,106.990549 65.3894439,109.154269 72.1789828,110.312944 C72.6969805,110.401355 73.04524,110.892939 72.9568402,111.410939 C72.9511156,111.444484 72.9435955,111.477697 72.9343124,111.510436 L72.2815762,113.812456 L72.2815762,113.812456 L55.2844895,113.812456 L45.3695223,113.812456 L44.4252397,112.385217 Z" id="Shoe" fill="#191847"></path>
                        </g>
                        <g id="Body/Long-Sleeve-1" transform="translate(9.225711, 44.940955)">
                            <path d="M73.2353731,31.5297046 L81.4192286,27.0339273 C82.5675394,22.6644717 83.940205,20.4660508 85.5372255,20.4386647 C86.7640693,19.8678265 84.6275293,25.3890418 86.9532372,24.910243 C89.2789451,24.4314442 94.9553335,20.2097095 95.9334035,21.0668811 C97.380395,22.3350114 96.0901685,26.228906 94.5699751,28.1659101 C91.7287355,31.7861684 89.3763117,33.0241874 83.561931,34.6453809 C80.5218725,35.4930245 77.2350317,37.1920532 73.7014085,39.7424668 L73.2353731,31.5297046 Z" id="Skin" fill="#F5CAA4"></path>
                            <path d="M35.5853389,18.652873 C42.0415982,19.6056448 50.8522752,19.6056448 60.9452845,15.2367954 L63.2747969,23.8391344 C55.9545404,29.1151669 46.2427342,32.8644745 38.4998358,31.4142224 C32.3980052,30.2713438 30.4397341,22.3615379 35.5853389,18.652873 Z" id="Sleeve" fill="#E87613" transform="translate(47.952647, 23.482587) rotate(-9.000000) translate(-47.952647, -23.482587) "></path>
                            <path d="M35.4166665,9.9475983e-14 C36.2384254,10.5576163 40.3745353,22.1930143 43.7689713,33.6879473 C50.6963992,35.4161617 62.3143468,33.3786678 78.6223475,27.5756419 C82.6672966,35.9439178 84.5371752,41.9098567 84.2319832,45.4734587 C70.2406934,52.7819674 58.2492081,56.0399357 48.3701585,56.2542606 C48.6881004,62.1140429 47.9747949,67.692173 45.5777954,72.7890318 C40.6506604,83.2658428 11.7995479,73.5631476 2.09891979,75.472875 C-3.97589878,55.7441332 7.76994675,47.7264523 7.77939763,35.1028533 C7.78974734,21.2786673 18.8899142,9.9475983e-14 20.5230814,9.9475983e-14 L20.5230814,9.9475983e-14 Z" id="Clothes" fill="#FF9B21"></path>
                        </g>
                    </g>
                    <g id="Group" transform="translate(227.796296, 129.333333) scale(-1, 1) translate(-227.796296, -129.333333) translate(134.296296, 8.333333)">
                        <g id="Group-3" transform="translate(0.000000, 0.282412)">
                            <g id="Bottom/Skinny-Jeans-1" transform="translate(34.444444, 86.666667)">
                                <g id="Group-37" transform="translate(31.363686, 0.000000)">
                                    <polygon id="Leg" fill="#F5CAA4" transform="translate(37.879376, 66.867425) rotate(8.000000) translate(-37.879376, -66.867425) " points="11.8053017 3.94648738 38.7475818 72.1381007 56.8178805 129.788362 63.9534498 129.788362 36.3279342 3.94648738"></polygon>
                                    <g id="Right-Shoe" transform="translate(44.006684, 125.648148)" fill="#2F3676">
                                        <path d="M1.47010023,3.7586417 C0.855985328,5.39800618 0.548927875,6.62462977 0.548927875,7.43851248 C0.548927875,8.42838655 0.713833606,9.872859 1.04364507,11.7719298 C2.19196846,11.7719298 12.5121441,11.7719298 32.004172,11.7719298 C32.8087263,9.11210379 32.3442909,7.6761493 30.6108657,7.46406636 C28.8774405,7.25198342 27.4374548,7.0604895 26.2909085,6.88958461 L11.9007523,0.474381252 C11.6238571,0.350939982 11.2993202,0.475338989 11.175879,0.75223421 C11.1737672,0.756971121 11.1717227,0.761737721 11.1697461,0.766532576 L10.2447579,3.01032461 L10.2447579,3.01032461 C8.64005955,3.75903869 7.33607554,4.13339573 6.33280587,4.13339573 C5.5176792,4.13339573 4.39198471,3.80419476 2.95572239,3.14579281 L2.95574093,3.14575237 C2.40454296,2.89307582 1.75287391,3.13507524 1.50019735,3.6862732 C1.48930685,3.71003014 1.47926809,3.73416835 1.47010023,3.7586417 Z" id="shoe"></path>
                                    </g>
                                    <polygon id="Pant" fill="#2F3676" transform="translate(36.511938, 63.677079) rotate(8.000000) translate(-36.511938, -63.677079) " points="30.350624 123.62903 64.2768174 119.947063 39.13347 3.72512861 8.74705866 3.72512861"></polygon>
                                </g>
                                <g id="Group-38" transform="translate(0.781226, 66.059224)">
                                    <path d="M52.1792801,7.66109917 C51.7336378,8.6569202 36.3493456,21.3205198 6.02640356,45.6518979 L10.9410738,50.9111747 C40.5225375,30.2297117 56.1410903,18.4978015 57.7967323,15.7154444 C60.2801952,11.5419087 52.8477436,6.16736762 52.1792801,7.66109917 Z" id="Leg" fill="#F5CAA4" transform="translate(32.164509, 29.158554) rotate(-19.000000) translate(-32.164509, -29.158554) "></path>
                                    <path d="M8.18775515,59.2132722 C7.57364024,60.8526367 7.26658279,62.0792603 7.26658279,62.893143 C7.26658279,63.883017 7.43148852,65.3274895 7.76129998,67.2265603 C8.90962337,67.2265603 19.229799,67.2265603 38.7218269,67.2265603 C39.5263813,64.5667343 39.0619458,63.1307798 37.3285206,62.9186969 C35.5950954,62.7066139 34.1551097,62.51512 33.0085634,62.3442151 L18.6184072,55.9290117 C18.341512,55.8055705 18.0169751,55.9299695 17.8935339,56.2068647 C17.8914221,56.2116016 17.8893776,56.2163682 17.887401,56.2211631 L16.9624128,58.4649551 L16.9624128,58.4649551 C15.3577145,59.2136692 14.0537305,59.5880262 13.0504608,59.5880262 C12.2353341,59.5880262 11.1096396,59.2588253 9.67337731,58.6004233 L9.67339585,58.6003829 C9.12219788,58.3477063 8.47052882,58.5897057 8.21785227,59.1409037 C8.20696177,59.1646606 8.196923,59.1887988 8.18775515,59.2132722 Z" id="shoe" fill="#5C63AB" transform="translate(23.185491, 61.462818) rotate(31.000000) translate(-23.185491, -61.462818) "></path>
                                </g>
                                <g id="Left-Shoe" transform="translate(36.602320, 132.382670) rotate(50.000000) translate(-36.602320, -132.382670) translate(19.009727, 121.271559)"></g>
                                <path d="M3.55900347,108.338614 L35.7235126,122.016862 C50.7783509,93.251937 60.2512844,74.9655001 64.142313,67.1575519 C68.0333417,59.3496037 71.5311784,38.198321 74.6358232,3.7037037 L40.4262103,3.7037037 C38.5618985,38.1526238 37.3345354,56.0831777 36.7441211,57.4953656 C36.1537067,58.9075535 25.0920009,75.855303 3.55900347,108.338614 Z" id="Pant" fill="#5C63AB"></path>
                            </g>
                            <g id="Group-35" transform="translate(93.491815, 80.620669) rotate(15.000000) translate(-93.491815, -80.620669) translate(13.991815, 18.620669)">
                                <g id="Body/Long-Sleeve-1" transform="translate(79.184828, 62.377781) rotate(-14.000000) translate(-79.184828, -62.377781) translate(9.184828, 16.377781)">
                                    <path d="M27.2558138,45.0120858 L38.5042885,47.2439412 C27.1920281,68.3256339 21.125466,79.4989432 20.3046023,80.7638693 C18.457659,83.6099529 20.1808945,88.8259928 20.8174505,91.5727953 C16.8240551,92.5023721 18.3989276,86.4918234 13.3453629,87.7467713 C8.7327035,88.8922296 4.8217245,91.8318837 0.520608496,87.8672911 C-0.00818844383,87.3798677 -0.395292806,85.8563203 1.40764382,85.0749001 C5.89941647,83.1280975 12.5356322,79.4827489 13.6116952,78.0674775 C15.0790992,76.1375022 19.6271388,65.1190382 27.2558138,45.0120858 Z M138.512452,28.1353907 L138.201093,28.5930438 C136.547132,31.0411098 135.04128,33.5686032 135.7064,34.4206851 C136.413089,35.3260221 138.460215,34.3267766 139.268972,35.7990321 C139.808143,36.7805358 136.357426,37.9546192 128.916822,39.3212823 L114.020263,50.7425013 L107.669201,42.606183 L127.559365,33.8711411 C131.043658,30.3990889 134.408239,27.7601687 137.653109,25.9543804 C138.623387,25.6454763 140.281061,25.5521527 138.512452,28.1353907 Z" id="Skin" fill="#F5CAA4"></path>
                                    <path d="M66.6534454,5.42185958 L71.3110719,4.1971078 C82.4844642,13.2868402 88.7873809,36.9218066 95.9290989,39.4984601 C102.681304,41.9345816 111.626199,38.2229511 122.217526,33.3413479 L126.220796,40.5302779 C117.22594,52.1481616 96.8545595,63.0808947 87.8215828,58.6473492 C73.3797306,51.5590317 67.6231578,22.2323519 66.6534454,5.42185958 Z" id="Coat-Back" fill="#DB2721" transform="translate(96.437121, 31.926616) rotate(5.000000) translate(-96.437121, -31.926616) "></path>
                                    <path d="M48.3849903,62.5777778 C67.4172835,62.5777778 81.4170396,62.5777778 90.3842583,62.5777778 C92.3034107,62.5777778 91.941783,59.8065907 91.6643579,58.4082345 C88.462537,42.2695138 75.9638426,24.8727539 75.9638426,1.89969133 L63.8492766,0 C53.8289742,16.1156479 50.3637799,35.9572734 48.3849903,62.5777778 Z" id="Shirt" fill="#DDE3E9"></path>
                                    <path d="M65.2543471,-9.9475983e-14 L67.8644633,0 C78.7401105,37.0729132 81.7383339,61.7746676 76.8591335,74.1052632 L76.8591335,74.1052632 L39.0532164,74.1052632 C39.6513506,65.0826785 41.5692147,55.5409598 44.1960789,46.23761 C35.6341367,61.6818618 28.4374629,72.8007125 22.6059348,79.5945419 L13.8025341,77.8702607 C19.4732844,42.7014684 35.8950205,16.7447148 63.0677424,-9.9475983e-14 L65.2543471,-9.9475983e-14 Z" id="Coat-Front" fill="#FF4133"></path>
                                </g>
                            </g>
                        </g>
                    </g>
                </g>
                <g id="Group" transform="translate(259.000000, 184.000000)">
                    <g id="Group-21" transform="translate(32.500000, 48.500000) scale(-1, 1) translate(-32.500000, -48.500000) translate(0.000000, 20.000000)">
                        <path d="M64.8,2 L64.8,51.8812078 C64.8,52.9857773 63.9045695,53.8812078 62.8,53.8812078 C62.2705465,53.8812078 61.7626956,53.6712694 61.3877867,53.2974188 L55.492793,47.4190656 C55.117884,47.0452149 54.6100332,46.8352766 54.0805797,46.8352766 L2,46.8352766 C0.8954305,46.8352766 1.3527075e-16,45.9398461 0,44.8352766 L0,2 C-1.3527075e-16,0.8954305 0.8954305,2.02906125e-16 2,0 L62.8,0 C63.9045695,-2.02906125e-16 64.8,0.8954305 64.8,2 Z" id="Fill-57" fill="#ACC7F4"></path>
                        <rect id="Label-Copy-54" fill="#FFFFFF" x="6.3" y="10" width="47" height="5.328124" rx="2.664062"></rect>
                        <rect id="Label-Copy-55" fill="#FFFFFF" x="6.3" y="20" width="52" height="5.328124" rx="2.664062"></rect>
                        <rect id="Label-Copy-55" fill="#FFFFFF" x="6.3" y="30" width="52" height="5.328124" rx="2.664062"></rect>
                    </g>
                    <g id="Group-33" transform="translate(136.000000, 33.000000) scale(-1, 1) translate(-136.000000, -33.000000) translate(98.000000, 0.000000)">
                        <path d="M76,2 L76,61.2067711 C76,62.3113406 75.1045695,63.2067711 74,63.2067711 C73.4731609,63.2067711 72.9675996,62.9988952 72.5931408,62.628301 L64.9820133,55.0957232 C64.6075545,54.725129 64.1019932,54.5172531 63.5751541,54.5172531 L2,54.5172531 C0.8954305,54.5172531 1.3527075e-16,53.6218226 0,52.5172531 L0,2 C-1.3527075e-16,0.8954305 0.8954305,2.02906125e-16 2,0 L74,0 C75.1045695,-2.02906125e-16 76,0.8954305 76,2 Z" id="Fill-57-Copy" fill="#8CB5F9" transform="translate(38.000000, 33.000000) scale(-1, 1) translate(-38.000000, -33.000000) "></path>
                        <rect id="Label-Copy-54" fill="#FFFFFF" x="9.3" y="10" width="51" height="5.328124" rx="2.664062"></rect>
                        <rect id="Label-Copy-55" fill="#FFFFFF" x="9.3" y="20" width="57" height="5.328124" rx="2.664062"></rect>
                        <rect id="Label-Copy-55" fill="#FFFFFF" x="9.3" y="30" width="57" height="5.328124" rx="2.664062"></rect>
                        <rect id="Label-Copy-56" fill="#FFFFFF" x="9.3" y="40" width="57" height="5.328124" rx="2.664062"></rect>
                    </g>
                </g>
            </g>
        </g>
    </g>
</svg>